<svg width="362" height="362" viewBox="0 0 362 362" fill="none" xmlns="http://www.w3.org/2000/svg">
<g clip-path="url(#clip0_367_2)">
<rect width="362" height="362" fill="white"/>
<path d="M254.608 -22.4668C231.308 10.8554 242.927 40.5897 239.707 78.0546C234.386 139.953 146.19 118.722 96.7577 140.218C48.4834 161.21 14.7061 210.443 -23.7157 209.826C-64.0191 209.178 -40.118 172.107 -51.6769 145.526C-61.4371 123.082 -133.397 100.724 -116.91 68.961C-95.2579 27.2471 -25.0075 -9.49652 33.8247 -35.0804C84.1175 -56.9509 126.349 -43.5123 165.72 -60.6334C223.228 -85.6415 277.92 -55.8054 254.608 -22.4668Z" fill="#FF00BB"/>
<path d="M182.757 284C163.415 305.989 162.744 338.975 152.757 373.173C136.257 429.673 95.8414 373.173 65.7568 373.173C36.3766 373.173 8.1309 405.929 -11.3967 389.5C-31.8806 372.267 -11.3967 346.971 -11.3967 317C-11.3967 291.693 -43.2513 240.82 -27.7432 217.5C-7.37685 186.874 36.7568 181 72.5625 181C103.171 181 121.795 211.157 145.757 211.157C180.757 211.157 202.108 262 182.757 284Z" fill="#FF0000"/>
<path d="M390.488 220.337C356.298 212.012 325.12 230.93 286.205 240.247C221.91 255.641 245.822 177.186 224.476 143.853C203.63 111.301 153.102 99.5284 154.538 68.1002C156.044 35.1329 194.122 42.7515 222.017 24.8881C245.572 9.80433 270.32 -55.8116 303.029 -52.5286C345.985 -48.2171 382.765 -2.81883 408.17 36.8531C429.888 70.7667 415.033 109.376 432.035 135.925C456.868 174.704 424.695 228.666 390.488 220.337Z" fill="#3700FF"/>
<path d="M92.8622 242.871C80.9818 216.104 51.3018 201.694 24.4191 178.317C-19.9958 139.693 48.2302 126.621 60.8164 99.2961C73.1079 72.6107 55.1731 33.2518 78.2645 22.3883C102.487 10.9928 116.893 40.1809 144.115 52.7194C167.101 63.3069 226.634 55.6571 241.328 79.4991C260.624 110.81 247.496 153.353 232.516 185.875C219.711 213.676 184.528 217.976 174.504 239.74C159.861 271.529 104.748 269.652 92.8622 242.871Z" fill="#09FF00"/>
<path d="M308.059 396.69C274.561 387.525 236.211 402.575 192.551 408.737C120.419 418.919 168.655 350.911 156.024 320.345C143.688 290.495 94.0264 277.419 104.787 249.744C116.076 220.713 153.869 229.461 188.458 215.168C217.664 203.098 263.001 146.472 296.425 151.106C340.321 157.193 365.629 199.231 380.663 235.61C393.514 266.709 366.53 300.013 376.591 324.358C391.286 359.918 341.573 405.859 308.059 396.69Z" fill="#FFF200"/>
<path d="M176.837 195.55L182.151 212.745L191.779 205.582L176.837 195.55Z" fill="black"/>
<path d="M191.006 241.402L299.031 386.611C299.031 386.611 301.545 385.914 304.686 384.751M191.006 241.402L182.151 212.745M191.006 241.402C191.006 241.402 193.52 240.705 196.661 239.542M216.681 222.302L324.706 367.511C324.706 367.511 323.315 369.718 321.299 372.392M216.681 222.302L191.779 205.582M216.681 222.302C216.681 222.302 215.29 224.509 213.274 227.183M182.151 212.745L176.837 195.55L191.779 205.582M182.151 212.745L191.779 205.582M206.094 234.878L314.119 380.087M206.094 234.878C208.603 233.011 211.253 229.863 213.274 227.183M206.094 234.878C203.585 236.744 199.808 238.377 196.661 239.542M314.119 380.087C316.628 378.22 319.278 375.072 321.299 372.392M314.119 380.087C311.61 381.953 307.833 383.586 304.686 384.751M321.299 372.392L213.274 227.183M196.661 239.542L304.686 384.751" stroke="black" stroke-width="5"/>
<path d="M206.537 126.573L188.646 124.626L191.399 136.306L206.537 126.573Z" fill="black"/>
<path d="M158.827 121.379L-17.33 162.897C-17.33 162.897 -17.6875 165.481 -17.8668 168.825M158.827 121.379L188.646 124.626M158.827 121.379C158.827 121.379 158.47 123.963 158.29 127.308M166.168 152.526L-9.98922 194.044C-9.98922 194.044 -11.463 191.891 -13.1168 188.979M166.168 152.526L191.399 136.306M166.168 152.526C166.168 152.526 164.694 150.374 163.04 147.461M188.646 124.626L206.537 126.573L191.399 136.306M188.646 124.626L191.399 136.306M158.828 137.818L-17.3296 179.335M158.828 137.818C159.545 140.862 161.383 144.543 163.04 147.461M158.828 137.818C158.11 134.774 158.111 130.659 158.29 127.308M-17.3296 179.335C-16.6121 182.379 -14.7741 186.061 -13.1168 188.979M-17.3296 179.335C-18.047 176.291 -18.0464 172.177 -17.8668 168.825M-13.1168 188.979L163.04 147.461M158.29 127.308L-17.8668 168.825" stroke="black" stroke-width="5"/>
</g>
<defs>
<clipPath id="clip0_367_2">
<rect width="362" height="362" fill="white"/>
</clipPath>
</defs>
</svg>
